<svg width="64" height="64" viewBox="0 0 64 64" fill="none" xmlns="http://www.w3.org/2000/svg">
<mask id="path-2-inside-1_137_2313" fill="white">
<path fill-rule="evenodd" clip-rule="evenodd" d="M32.6663 20C32.6663 20 29.7697 22.4324 29.5722 26.6184C26.6754 23.6163 22.8909 23.7276 22.8909 23.7276C22.8909 23.7276 22.5598 27.4615 25.3346 30.5518C21.1838 30.5368 18.6118 33.2557 18.6118 33.2557C18.6118 33.2557 21.1032 36.2226 25.3823 36.3557C29.4865 36.4834 32.0511 33.8819 32.254 33.6689C33.1851 34.5291 35.3334 36.1396 38.4465 36.2369C42.7256 36.351 45.3882 33.5363 45.3882 33.5363C45.3882 33.5363 43.3318 31.0875 39.7466 30.5396C42.3142 27.6999 42.2136 24.2981 42.2136 24.2981C42.2136 24.2981 38.464 23.9656 35.37 26.7592C35.4011 22.587 32.6663 20 32.6663 20Z"/>
</mask>
<path d="M29.5722 26.6184L28.133 28.0072L31.3517 31.3428L31.57 26.7126L29.5722 26.6184ZM32.6663 20L34.0407 18.5471L32.7455 17.3219L31.3801 18.4684L32.6663 20ZM22.8909 23.7276L22.8321 21.7285L21.0557 21.7807L20.8987 23.5509L22.8909 23.7276ZM25.3346 30.5518L25.3274 32.5518L29.833 32.5681L26.8228 29.2156L25.3346 30.5518ZM18.6118 33.2557L17.1589 31.8813L15.9337 33.1765L17.0802 34.5419L18.6118 33.2557ZM25.3823 36.3557L25.3201 38.3547L25.3201 38.3547L25.3823 36.3557ZM32.254 33.6689L33.6111 32.1998L32.1643 30.8634L30.8058 32.2894L32.254 33.6689ZM38.4465 36.2369L38.384 38.236L38.3932 38.2362L38.4465 36.2369ZM45.3882 33.5363L46.8411 34.9107L48.0663 33.6155L46.9198 32.2502L45.3882 33.5363ZM39.7466 30.5396L38.2631 29.1982L35.7704 31.9551L39.4445 32.5166L39.7466 30.5396ZM42.2136 24.2981L44.2127 24.239L44.1602 22.4628L42.3903 22.3059L42.2136 24.2981ZM35.37 26.7592L33.37 26.7443L33.3361 31.2903L36.7103 28.2437L35.37 26.7592ZM31.57 26.7126C31.6474 25.0713 32.2537 23.7609 32.8611 22.8433C33.1637 22.3861 33.459 22.0384 33.6708 21.8121C33.7762 21.6995 33.8593 21.6187 33.91 21.5711C33.9353 21.5474 33.9524 21.5321 33.9599 21.5254C33.9637 21.522 33.9651 21.5209 33.9639 21.5219C33.9633 21.5224 33.962 21.5235 33.9601 21.5251C33.9592 21.5259 33.9581 21.5268 33.9568 21.5279C33.9561 21.5285 33.9555 21.5291 33.9547 21.5297C33.9544 21.53 33.9538 21.5305 33.9536 21.5306C33.953 21.5311 33.9524 21.5316 32.6663 20C31.3801 18.4684 31.3795 18.4689 31.3789 18.4694C31.3786 18.4696 31.378 18.4702 31.3776 18.4706C31.3766 18.4713 31.3757 18.4721 31.3747 18.473C31.3727 18.4746 31.3706 18.4765 31.3682 18.4785C31.3635 18.4825 31.3581 18.4871 31.3521 18.4923C31.3399 18.5028 31.325 18.5158 31.3075 18.5313C31.2725 18.5623 31.2271 18.6033 31.1728 18.6543C31.0644 18.7561 30.9196 18.898 30.7504 19.0788C30.4129 19.4394 29.9717 19.9615 29.5255 20.6356C28.6352 21.9807 27.6945 23.9796 27.5745 26.5242L31.57 26.7126ZM22.8909 23.7276C22.9497 25.7267 22.9489 25.7267 22.9482 25.7268C22.9479 25.7268 22.9472 25.7268 22.9467 25.7268C22.9458 25.7268 22.9449 25.7269 22.944 25.7269C22.9423 25.7269 22.9409 25.727 22.9396 25.727C22.9371 25.727 22.9355 25.7271 22.9347 25.7271C22.9331 25.7271 22.9349 25.7271 22.9399 25.7271C22.95 25.727 22.9729 25.7271 23.0075 25.728C23.077 25.7298 23.1927 25.7349 23.3459 25.7488C23.654 25.7769 24.1045 25.8401 24.6319 25.9802C25.6905 26.2613 27.0027 26.8358 28.133 28.0072L31.0115 25.2297C29.2449 23.3989 27.2165 22.5279 25.6587 22.1142C24.8779 21.9069 24.2011 21.8102 23.7091 21.7654C23.4623 21.7429 23.2597 21.7332 23.1109 21.7293C23.0364 21.7274 22.9751 21.7269 22.9283 21.7271C22.9049 21.7271 22.8851 21.7274 22.8691 21.7276C22.861 21.7278 22.8539 21.7279 22.8477 21.728C22.8447 21.7281 22.8418 21.7282 22.8392 21.7283C22.8379 21.7283 22.8367 21.7283 22.8355 21.7284C22.8349 21.7284 22.8341 21.7284 22.8338 21.7284C22.8329 21.7284 22.8321 21.7285 22.8909 23.7276ZM26.8228 29.2156C25.7357 28.0049 25.2475 26.6587 25.0334 25.5884C24.9267 25.0552 24.8911 24.6044 24.8816 24.2975C24.8769 24.1448 24.8787 24.03 24.881 23.9612C24.8821 23.9269 24.8834 23.9043 24.884 23.8944C24.8843 23.8895 24.8845 23.8877 24.8844 23.8893C24.8843 23.8901 24.8842 23.8917 24.884 23.8942C24.8839 23.8955 24.8837 23.8969 24.8836 23.8986C24.8835 23.8994 24.8835 23.9003 24.8834 23.9012C24.8833 23.9017 24.8833 23.9025 24.8832 23.9027C24.8832 23.9035 24.8831 23.9042 22.8909 23.7276C20.8987 23.5509 20.8987 23.5517 20.8986 23.5526C20.8986 23.5529 20.8985 23.5537 20.8985 23.5543C20.8984 23.5554 20.8982 23.5567 20.8981 23.558C20.8979 23.5605 20.8977 23.5633 20.8974 23.5664C20.8969 23.5725 20.8964 23.5795 20.8958 23.5875C20.8946 23.6034 20.8932 23.623 20.8917 23.6461C20.8889 23.6925 20.8857 23.7531 20.8833 23.8269C20.8783 23.9744 20.8759 24.1755 20.8835 24.4211C20.8987 24.9109 20.9537 25.5867 21.1111 26.3732C21.4251 27.9425 22.1588 30.0084 23.8465 31.888L26.8228 29.2156ZM18.6118 33.2557C20.0648 34.6301 20.0642 34.6307 20.0637 34.6312C20.0635 34.6314 20.063 34.632 20.0627 34.6323C20.062 34.633 20.0614 34.6336 20.0609 34.6342C20.0597 34.6354 20.0587 34.6365 20.0578 34.6374C20.0561 34.6392 20.055 34.6404 20.0544 34.6409C20.0533 34.6421 20.0545 34.6408 20.058 34.6373C20.065 34.6303 20.0811 34.6143 20.106 34.5907C20.1559 34.5434 20.2406 34.466 20.358 34.3684C20.5939 34.172 20.9547 33.8997 21.4245 33.6256C22.3676 33.0754 23.6994 32.5459 25.3274 32.5518L25.3419 28.5518C22.819 28.5427 20.7894 29.3651 19.4088 30.1706C18.7167 30.5744 18.1752 30.9809 17.7991 31.2939C17.6105 31.4509 17.4618 31.5858 17.3548 31.6871C17.3013 31.7378 17.2581 31.7803 17.2254 31.8131C17.209 31.8295 17.1953 31.8435 17.1842 31.8549C17.1787 31.8606 17.1738 31.8657 17.1696 31.8701C17.1674 31.8723 17.1655 31.8744 17.1637 31.8762C17.1628 31.8772 17.162 31.8781 17.1612 31.8789C17.1608 31.8793 17.1602 31.8799 17.16 31.8801C17.1594 31.8807 17.1589 31.8813 18.6118 33.2557ZM25.4445 34.3567C23.7662 34.3045 22.4267 33.6974 21.4883 33.0828C21.0204 32.7763 20.6642 32.4753 20.4321 32.2588C20.3166 32.1511 20.2337 32.066 20.1847 32.0138C20.1602 31.9878 20.1444 31.9702 20.1374 31.9623C20.134 31.9584 20.1327 31.9569 20.1337 31.9581C20.1342 31.9587 20.1352 31.9599 20.1368 31.9618C20.1377 31.9627 20.1386 31.9639 20.1397 31.9652C20.1403 31.9658 20.1408 31.9665 20.1415 31.9672C20.1418 31.9676 20.1423 31.9682 20.1424 31.9684C20.1429 31.969 20.1434 31.9696 18.6118 33.2557C17.0802 34.5419 17.0807 34.5425 17.0813 34.5431C17.0815 34.5434 17.082 34.544 17.0824 34.5445C17.0832 34.5454 17.084 34.5464 17.0848 34.5474C17.0865 34.5494 17.0884 34.5516 17.0904 34.554C17.0945 34.5587 17.0992 34.5642 17.1045 34.5704C17.1152 34.5828 17.1284 34.598 17.1442 34.6158C17.1759 34.6515 17.2178 34.6977 17.2698 34.7531C17.3738 34.8637 17.5188 35.0114 17.7038 35.1839C18.0725 35.5279 18.6067 35.977 19.2965 36.4288C20.6736 37.3308 22.7194 38.2738 25.3201 38.3547L25.4445 34.3567ZM30.8058 32.2894C30.7179 32.3818 28.6743 34.4572 25.4445 34.3567L25.3201 38.3547C30.2987 38.5096 33.3843 35.382 33.7021 35.0484L30.8058 32.2894ZM30.8968 35.138C32.007 36.1636 34.5959 38.1176 38.384 38.2359L38.509 34.2379C36.0709 34.1617 34.3632 32.8946 33.6111 32.1998L30.8968 35.138ZM38.3932 38.2362C40.9934 38.3055 43.0906 37.4835 44.518 36.6638C45.2331 36.2531 45.7927 35.8363 46.181 35.5147C46.3757 35.3534 46.5292 35.2145 46.6395 35.1103C46.6947 35.0581 46.7392 35.0144 46.7729 34.9807C46.7897 34.9638 46.8038 34.9494 46.8152 34.9377C46.8209 34.9318 46.8259 34.9267 46.8302 34.9221C46.8324 34.9199 46.8344 34.9178 46.8362 34.9159C46.8371 34.9149 46.838 34.914 46.8388 34.9132C46.8392 34.9127 46.8398 34.9121 46.84 34.9119C46.8406 34.9113 46.8411 34.9107 45.3882 33.5363C43.9352 32.1619 43.9358 32.1613 43.9363 32.1608C43.9365 32.1606 43.937 32.16 43.9373 32.1597C43.938 32.159 43.9386 32.1583 43.9392 32.1577C43.9404 32.1565 43.9414 32.1554 43.9423 32.1545C43.944 32.1527 43.9451 32.1516 43.9456 32.151C43.9467 32.15 43.9453 32.1514 43.9416 32.1551C43.9341 32.1626 43.9173 32.1792 43.8913 32.2038C43.8393 32.253 43.7513 32.3332 43.6296 32.434C43.385 32.6366 43.0115 32.9163 42.526 33.195C41.5524 33.7542 40.1787 34.2824 38.4998 34.2376L38.3932 38.2362ZM45.3882 33.5363C46.9198 32.2502 46.9193 32.2496 46.9188 32.249C46.9187 32.2488 46.9182 32.2482 46.9178 32.2478C46.9171 32.247 46.9164 32.2461 46.9156 32.2452C46.9141 32.2434 46.9125 32.2415 46.9107 32.2394C46.9071 32.2352 46.903 32.2304 46.8984 32.225C46.8891 32.2142 46.8777 32.2011 46.8642 32.1858C46.8372 32.1551 46.8017 32.1156 46.7578 32.0684C46.67 31.974 46.5484 31.8483 46.3938 31.7003C46.0853 31.405 45.6406 31.0165 45.0669 30.6106C43.9243 29.8024 42.2265 28.8953 40.0488 28.5625L39.4445 32.5166C40.8519 32.7317 41.9749 33.323 42.7568 33.8762C43.1454 34.151 43.4388 34.4089 43.6279 34.59C43.7221 34.6801 43.7891 34.7499 43.8279 34.7916C43.8472 34.8124 43.8594 34.8261 43.8643 34.8316C43.8667 34.8343 43.8673 34.835 43.866 34.8336C43.8654 34.8328 43.8643 34.8315 43.8627 34.8297C43.8619 34.8288 43.861 34.8277 43.86 34.8265C43.8595 34.8259 43.8589 34.8253 43.8584 34.8246C43.8581 34.8243 43.8576 34.8237 43.8575 34.8236C43.857 34.823 43.8566 34.8225 45.3882 33.5363ZM42.2136 24.2981C40.2145 24.3571 40.2145 24.3564 40.2144 24.3557C40.2144 24.3554 40.2144 24.3547 40.2144 24.3543C40.2144 24.3533 40.2144 24.3525 40.2143 24.3517C40.2143 24.35 40.2143 24.3486 40.2142 24.3473C40.2142 24.3449 40.2141 24.3431 40.2141 24.3422C40.2141 24.3403 40.2141 24.3415 40.2141 24.3455C40.2142 24.3537 40.2141 24.3734 40.2134 24.4038C40.212 24.4648 40.2079 24.5678 40.1963 24.7056C40.1729 24.9825 40.1198 25.3916 40.0006 25.8773C39.761 26.8537 39.2684 28.0864 38.2631 29.1982L41.2301 31.8809C42.7924 30.1531 43.5333 28.2651 43.8853 26.8306C44.0619 26.1109 44.1441 25.4921 44.1821 25.0423C44.2012 24.8168 44.2093 24.6319 44.2124 24.4957C44.214 24.4276 44.2143 24.3715 44.2141 24.3284C44.214 24.3068 44.2138 24.2885 44.2135 24.2736C44.2134 24.2661 44.2133 24.2595 44.2131 24.2537C44.2131 24.2508 44.213 24.2482 44.2129 24.2457C44.2129 24.2445 44.2129 24.2433 44.2128 24.2422C44.2128 24.2416 44.2128 24.2408 44.2128 24.2405C44.2128 24.2397 44.2127 24.239 42.2136 24.2981ZM36.7103 28.2437C37.9225 27.1492 39.2723 26.6576 40.3461 26.4418C40.8811 26.3343 41.3336 26.2984 41.6418 26.2888C41.7951 26.284 41.9104 26.2858 41.9795 26.2881C42.014 26.2893 42.0368 26.2905 42.0467 26.2912C42.0517 26.2915 42.0535 26.2916 42.0519 26.2915C42.0511 26.2914 42.0495 26.2913 42.047 26.2911C42.0458 26.291 42.0443 26.2909 42.0426 26.2907C42.0418 26.2907 42.0409 26.2906 42.04 26.2905C42.0395 26.2905 42.0387 26.2904 42.0385 26.2904C42.0377 26.2903 42.037 26.2902 42.2136 24.2981C42.3903 22.3059 42.3895 22.3058 42.3886 22.3057C42.3883 22.3057 42.3875 22.3056 42.3869 22.3056C42.3858 22.3055 42.3845 22.3054 42.3832 22.3053C42.3806 22.305 42.3778 22.3048 42.3748 22.3046C42.3687 22.304 42.3616 22.3035 42.3536 22.3029C42.3377 22.3017 42.318 22.3003 42.2948 22.2989C42.2483 22.296 42.1875 22.2928 42.1134 22.2903C41.9653 22.2854 41.7635 22.283 41.517 22.2907C41.0255 22.3061 40.3472 22.3616 39.558 22.5202C37.9835 22.8366 35.9115 23.5756 34.0297 25.2748L36.7103 28.2437ZM32.6663 20C31.2919 21.4529 31.2913 21.4524 31.2908 21.4519C31.2906 21.4517 31.29 21.4512 31.2897 21.4509C31.289 21.4502 31.2884 21.4496 31.2878 21.449C31.2865 21.4479 31.2855 21.4469 31.2846 21.446C31.2828 21.4443 31.2816 21.4432 31.2811 21.4426C31.2799 21.4415 31.2812 21.4427 31.2848 21.4463C31.2919 21.4534 31.3079 21.4696 31.3317 21.4946C31.3793 21.5449 31.4572 21.6301 31.5554 21.7482C31.7527 21.9856 32.0263 22.3485 32.3012 22.8209C32.8529 23.7691 33.3823 25.1078 33.37 26.7443L37.3699 26.7741C37.3889 24.2384 36.5664 22.1975 35.7584 20.8091C35.3535 20.1133 34.9453 19.5687 34.6309 19.1906C34.4732 19.001 34.3376 18.8515 34.2358 18.744C34.1848 18.6902 34.1421 18.6467 34.1092 18.6139C34.0927 18.5974 34.0786 18.5836 34.0672 18.5725C34.0614 18.5669 34.0563 18.562 34.0519 18.5578C34.0497 18.5557 34.0477 18.5537 34.0458 18.5519C34.0449 18.551 34.044 18.5502 34.0431 18.5494C34.0427 18.549 34.0421 18.5484 34.0419 18.5482C34.0413 18.5476 34.0407 18.5471 32.6663 20Z" fill="#6A6E79" mask="url(#path-2-inside-1_137_2313)"/>
<path d="M35.2245 39.5164L32.6137 42.4136C32.3778 42.6831 32.0073 42.6662 31.7715 42.3967L29.3291 39.348C28.8069 38.6911 29.0091 38.1689 29.767 38.2026L34.8371 38.3542C35.6287 38.3542 35.7972 38.8932 35.2245 39.5164Z" stroke="#6A6E79" stroke-width="2" stroke-linejoin="round"/>
<path d="M33.9106 34.825C33.8938 35.6672 33.1695 36.3409 32.3273 36.3241C31.4851 36.3072 30.8113 35.5829 30.8282 34.7408C30.845 33.8986 31.5693 33.2248 32.4115 33.2416C33.2706 33.2753 33.9275 33.9828 33.9106 34.825Z" fill="#6A6E79" stroke="#6A6E79" stroke-width="2"/>
<path d="M37.3468 42.7169C37.33 43.458 36.3194 44.0475 35.1066 43.997C33.8938 43.9633 31.9231 42.5484 31.9231 42.5484C31.9231 42.5484 33.9781 41.2514 35.1908 41.2851C36.4036 41.3357 37.3805 41.9589 37.3468 42.7169Z" stroke="#6A6E79" stroke-width="2" stroke-linejoin="round"/>
<path d="M27.0214 42.4136C27.0382 41.6725 28.0488 41.0829 29.2616 41.1335C30.4744 41.1671 32.4451 42.582 32.4451 42.582C32.4451 42.582 30.3901 43.879 29.1774 43.8453C27.9646 43.7948 26.9877 43.1547 27.0214 42.4136Z" stroke="#6A6E79" stroke-width="2"/>
</svg>
