<svg width="24" height="24" viewBox="0 0 24 24" fill="none" xmlns="http://www.w3.org/2000/svg">
<path d="M16 22V18.2002C16 18.0775 16.0693 17.9653 16.1791 17.9105V17.9105C18.5208 16.7396 20 14.3462 20 11.7281V10C20 6.13401 16.866 3 13 3L11.9231 3C8.65186 3 6 5.65186 6 8.9231V8.9231C6 8.97342 5.98632 9.0228 5.96043 9.06595L3.9855 12.3575C3.55179 13.0804 4.07248 14 4.91548 14V14C5.51444 14 6 14.4856 6 15.0845V16.5C6 17.3284 6.67157 18 7.5 18H8.5C9.32843 18 10 18.6716 10 19.5V22" stroke="white" stroke-width="2"/>
<path d="M13 7V13" stroke="white" stroke-width="2"/>
<path d="M16 10L10 10" stroke="white" stroke-width="2"/>
</svg>
