<svg width="64" height="64" viewBox="0 0 64 64" fill="none" xmlns="http://www.w3.org/2000/svg">
<path d="M27.5 23H30.5C31.3284 23 32 23.6716 32 24.5V39.5C32 40.3284 31.3284 41 30.5 41H27.5C26.6716 41 26 40.3284 26 39.5V36.5C26 35.6716 25.3284 35 24.5 35C23.6716 35 23 34.3284 23 33.5V30.5C23 29.6716 23.6716 29 24.5 29C25.3284 29 26 28.3284 26 27.5V24.5C26 23.6716 26.6716 23 27.5 23Z" stroke="#6A6E79" stroke-width="2"/>
<path d="M32 24V25.5C32 26.3284 31.3284 27 30.5 27H29" stroke="#6A6E79" stroke-width="2"/>
<path d="M24 35H27.5C28.3284 35 29 35.6716 29 36.5V37" stroke="#6A6E79" stroke-width="2"/>
<path d="M26 27V29.5C26 30.3284 26.6716 31 27.5 31H29" stroke="#6A6E79" stroke-width="2"/>
<path d="M36.5 23H33.5C32.6716 23 32 23.6716 32 24.5V39.5C32 40.3284 32.6716 41 33.5 41H36.5C37.3284 41 38 40.3284 38 39.5V36.5C38 35.6716 38.6716 35 39.5 35C40.3284 35 41 34.3284 41 33.5V30.5C41 29.6716 40.3284 29 39.5 29C38.6716 29 38 28.3284 38 27.5V24.5C38 23.6716 37.3284 23 36.5 23Z" stroke="#6A6E79" stroke-width="2"/>
<path d="M32 24V25.5C32 26.3284 32.6716 27 33.5 27H35" stroke="#6A6E79" stroke-width="2"/>
<path d="M40 35H36.5C35.6716 35 35 35.6716 35 36.5V37" stroke="#6A6E79" stroke-width="2"/>
<path d="M38 27V29.5C38 30.3284 37.3284 31 36.5 31H35" stroke="#6A6E79" stroke-width="2"/>
</svg>
