<svg width="64" height="64" viewBox="0 0 64 64" fill="none" xmlns="http://www.w3.org/2000/svg">
<path d="M24.5 29H27.5C28.3284 29 29 28.3284 29 27.5V24.5C29 23.6716 29.6716 23 30.5 23H33.5C34.3284 23 35 23.6716 35 24.5V27.5C35 28.3284 35.6716 29 36.5 29H39.5C40.3284 29 41 29.6716 41 30.5V33.5C41 34.3284 40.3284 35 39.5 35H36.5C35.6716 35 35 35.6716 35 36.5V39.5C35 40.3284 34.3284 41 33.5 41H30.5C29.6716 41 29 40.3284 29 39.5V36.5C29 35.6716 28.3284 35 27.5 35H24.5C23.6716 35 23 34.3284 23 33.5V30.5C23 29.6716 23.6716 29 24.5 29Z" stroke="#6A6E79" stroke-width="2"/>
</svg>
