<svg width="64" height="64" viewBox="0 0 64 64" fill="none" xmlns="http://www.w3.org/2000/svg">
<path d="M29 23V23C30.6569 23 32 24.3431 32 26V28" stroke="#6A6E79" stroke-width="2"/>
<path d="M35 23V23C33.3431 23 32 24.3431 32 26V28" stroke="#6A6E79" stroke-width="2"/>
<path d="M29.3722 26.9489L30.8858 27.5543C31.6011 27.8404 32.3989 27.8404 33.1142 27.5543L34.6278 26.9489C35.995 26.402 37.5569 26.9282 38.3145 28.1908L39.2344 29.724C39.7168 30.5279 39.7955 31.5112 39.4473 32.3816L37.1376 38.1561C36.5252 39.687 34.7352 40.3676 33.2604 39.6302C32.467 39.2335 31.533 39.2335 30.7396 39.6302C29.2648 40.3676 27.4748 39.687 26.8624 38.1561L24.5527 32.3816C24.2045 31.5112 24.2832 30.5279 24.7656 29.724L25.6855 28.1908C26.4431 26.9282 28.005 26.402 29.3722 26.9489Z" stroke="#6A6E79" stroke-width="2"/>
</svg>
