<svg width="604" height="878" viewBox="0 0 604 878" fill="none" xmlns="http://www.w3.org/2000/svg">
<mask id="mask0_10_1528" style="mask-type:luminance" maskUnits="userSpaceOnUse" x="0" y="251" width="403" height="352">
<path d="M0 251.115H402.75V602.859H0V251.115Z" fill="white"/>
</mask>
<g mask="url(#mask0_10_1528)">
<mask id="mask1_10_1528" style="mask-type:luminance" maskUnits="userSpaceOnUse" x="0" y="251" width="402" height="352">
<path d="M401.974 465.818V503.208C401.974 504.151 401.953 505.078 401.917 506C400.073 557.458 359.547 599.068 308.536 602.599C306.203 602.771 303.854 602.849 301.484 602.849C299.266 602.849 297.052 602.781 294.875 602.63C244.083 599.339 203.573 558.297 201.115 507.281C201.036 505.651 200.995 504 200.995 502.349V452.109H100.505C44.9948 452.109 0.00524902 407.109 0.00524902 351.609C0.00524902 296.109 44.9948 251.12 100.505 251.12H187.276C191.885 251.12 196.453 251.271 200.995 251.557C237.776 253.87 272.036 265.448 301.484 283.979C358.224 319.688 397.073 381.229 401.536 452.109C401.833 456.641 401.974 461.219 401.974 465.818Z" fill="white"/>
</mask>
<g mask="url(#mask1_10_1528)">
<path d="M-4.99475 246.12H607.62V882.719H-4.99475V246.12Z" fill="white"/>
</g>
</g>
<mask id="mask2_10_1528" style="mask-type:luminance" maskUnits="userSpaceOnUse" x="200" y="251" width="404" height="202">
<path d="M200.875 251.115H603.62V452.193H200.875V251.115Z" fill="white"/>
</mask>
<g mask="url(#mask2_10_1528)">
<mask id="mask3_10_1528" style="mask-type:luminance" maskUnits="userSpaceOnUse" x="200" y="251" width="403" height="202">
<path d="M602.964 350.75V352.469C602.505 407.578 557.682 452.109 502.474 452.109H401.536C397.073 381.229 358.224 319.688 301.484 283.979C272.036 265.448 237.776 253.87 200.995 251.557V251.12H502.474C557.682 251.12 602.505 295.641 602.964 350.75Z" fill="white"/>
</mask>
<g mask="url(#mask3_10_1528)">
<path d="M-4.99481 246.12H607.62V882.719H-4.99481V246.12Z" fill="#01C38E"/>
</g>
</g>
<mask id="mask4_10_1528" style="mask-type:luminance" maskUnits="userSpaceOnUse" x="0" y="501" width="603" height="377">
<path d="M0.151001 501.958H602.625V877.724H0.151001V501.958Z" fill="white"/>
</mask>
<g mask="url(#mask4_10_1528)">
<mask id="mask5_10_1528" style="mask-type:luminance" maskUnits="userSpaceOnUse" x="0" y="502" width="603" height="376">
<path d="M602.125 577.078C602.125 581.411 602.036 585.708 601.844 589.99C600.734 616.547 596.167 642.208 588.583 666.547C572.193 719.208 541.714 765.661 501.547 801.49C500.656 802.281 499.766 803.068 498.865 803.839C447.203 848.859 380.005 876.51 306.375 877.677C304.745 877.708 303.115 877.719 301.484 877.719C293.974 877.719 286.516 877.438 279.146 876.901C212.365 872 151.656 845.281 104.104 803.839C103.625 803.427 103.146 803.01 102.667 802.589C62.1145 766.807 31.2864 720.271 14.6666 667.427C6.91661 642.828 2.25515 616.87 1.12494 589.99C0.932231 585.708 0.843689 581.411 0.843689 577.078C0.843689 572.75 0.932231 568.448 1.12494 564.172C7.17181 529.359 37.3333 502.818 73.776 502.359H75.7031C116.516 502.88 149.453 536.13 149.453 577.078H149.463C149.453 577.51 149.453 577.938 149.453 578.37C149.453 585.208 149.896 591.938 150.745 598.531C153.266 618.177 159.432 636.62 168.526 653.099C193.562 698.531 240.734 729.109 294.875 729.109C300.036 729.109 305.062 729.63 309.932 730.63L309.922 729.099C363.385 728.5 409.875 698.078 434.667 653.099C443.495 637.078 449.573 619.208 452.224 600.188C453.052 594.26 453.547 588.219 453.682 582.089C453.573 580.427 453.516 578.76 453.516 577.078C453.516 536.13 486.453 502.87 527.286 502.359H529.214C565.646 502.818 595.797 529.359 601.844 564.172C602.036 568.448 602.125 572.75 602.125 577.078Z" fill="white"/>
</mask>
<g mask="url(#mask5_10_1528)">
<path d="M-4.99487 246.12H607.62V882.719H-4.99487V246.12Z" fill="white"/>
</g>
</g>
<mask id="mask6_10_1528" style="mask-type:luminance" maskUnits="userSpaceOnUse" x="200" y="0" width="202" height="201">
<path d="M200.995 0H401.865V200.87H200.995V0Z" fill="white"/>
</mask>
<g mask="url(#mask6_10_1528)">
<mask id="mask7_10_1528" style="mask-type:luminance" maskUnits="userSpaceOnUse" x="200" y="0" width="202" height="201">
<path d="M401.865 100.438C401.865 155.911 356.896 200.87 301.422 200.87C245.953 200.87 200.995 155.911 200.995 100.438C200.995 44.9688 245.953 0 301.422 0C356.896 0 401.865 44.9688 401.865 100.438Z" fill="white"/>
</mask>
<g mask="url(#mask7_10_1528)">
<path d="M200.995 0H401.865V200.87H200.995V0Z" fill="white"/>
</g>
</g>
</svg>
