<svg width="64" height="64" viewBox="0 0 64 64" fill="none" xmlns="http://www.w3.org/2000/svg">
<path d="M32 37V38C32 39.6569 33.3431 41 35 41L38 41" stroke="#6A6E79" stroke-width="2"/>
<path d="M32 37V38C32 39.6569 30.6569 41 29 41L26 41" stroke="#6A6E79" stroke-width="2"/>
<path d="M23 30H28.1972C28.6988 30 29.1671 30.2507 29.4453 30.6679L30.8066 32.7099C30.9274 32.8912 31.1308 33 31.3486 33V33C31.7084 33 32 32.7084 32 32.3486V30V27.6514C32 27.2916 32.2916 27 32.6514 27V27C32.8692 27 33.0726 27.1088 33.1934 27.2901L34.5547 29.3321C34.8329 29.7493 35.3012 30 35.8028 30H41" stroke="#6A6E79" stroke-width="2"/>
<path d="M41 34V26C41 24.3431 39.6569 23 38 23H26C24.3431 23 23 24.3431 23 26V34C23 35.6569 24.3431 37 26 37H38C39.6569 37 41 35.6569 41 34Z" stroke="#6A6E79" stroke-width="2"/>
</svg>
