<svg width="64" height="64" viewBox="0 0 64 64" fill="none" xmlns="http://www.w3.org/2000/svg">
<rect width="64" height="64" rx="12" fill="#C1FFEE"/>
<rect x="26" y="26" width="12" height="12" rx="3" stroke="#024E56" stroke-width="2"/>
<path d="M32 26V23.5C32 22.6716 32.6716 22 33.5 22H34" stroke="#024E56" stroke-width="2"/>
<path d="M32 26V23.5C32 22.6716 31.3284 22 30.5 22H30" stroke="#024E56" stroke-width="2"/>
<path d="M32 38V40.5C32 41.3284 32.6716 42 33.5 42H34" stroke="#024E56" stroke-width="2"/>
<path d="M32 38V40.5C32 41.3284 31.3284 42 30.5 42H30" stroke="#024E56" stroke-width="2"/>
<path d="M26 32L23.5 32C22.6716 32 22 31.3284 22 30.5L22 30" stroke="#024E56" stroke-width="2"/>
<path d="M26 32L23.5 32C22.6716 32 22 32.6716 22 33.5L22 34" stroke="#024E56" stroke-width="2"/>
<path d="M38 32L40.5 32C41.3284 32 42 31.3284 42 30.5L42 30" stroke="#024E56" stroke-width="2"/>
<path d="M38 32L40.5 32C41.3284 32 42 32.6716 42 33.5L42 34" stroke="#024E56" stroke-width="2"/>
<path d="M30 31.5V32.5C30 33.3284 30.6716 34 31.5 34H32.5C33.3284 34 34 33.3284 34 32.5V31.5C34 30.6716 33.3284 30 32.5 30H31.5C30.6716 30 30 30.6716 30 31.5Z" stroke="#024E56" stroke-width="2"/>
<path d="M37 27L38.4393 25.5607C39.0251 24.9749 39.9749 24.9749 40.5607 25.5607L41 26" stroke="#024E56" stroke-width="2"/>
<path d="M37 37L38.4393 38.4393C39.0251 39.0251 39.9749 39.0251 40.5607 38.4393L41 38" stroke="#024E56" stroke-width="2"/>
<path d="M37 27L38.4393 25.5607C39.0251 24.9749 39.0251 24.0251 38.4393 23.4393L38 23" stroke="#024E56" stroke-width="2"/>
<path d="M37 37L38.4393 38.4393C39.0251 39.0251 39.0251 39.9749 38.4393 40.5607L38 41" stroke="#024E56" stroke-width="2"/>
<path d="M27 27L25.5607 25.5607C24.9749 24.9749 24.0251 24.9749 23.4393 25.5607L23 26" stroke="#024E56" stroke-width="2"/>
<path d="M27 37L25.5607 38.4393C24.9749 39.0251 24.0251 39.0251 23.4393 38.4393L23 38" stroke="#024E56" stroke-width="2"/>
<path d="M27 27L25.5607 25.5607C24.9749 24.9749 24.9749 24.0251 25.5607 23.4393L26 23" stroke="#024E56" stroke-width="2"/>
<path d="M27 37L25.5607 38.4393C24.9749 39.0251 24.9749 39.9749 25.5607 40.5607L26 41" stroke="#024E56" stroke-width="2"/>
</svg>
