<svg width="39" height="37" viewBox="0 0 39 37" fill="none" xmlns="http://www.w3.org/2000/svg">
<path d="M5 25L7 23L8.56066 21.4393C8.84196 21.158 9 20.7765 9 20.3787V17.5C9 16.6716 8.32843 16 7.5 16H5.5C4.67157 16 4 16.6716 4 17.5V22.8488C4 23.5899 4.27433 24.3048 4.77012 24.8557L8.5 29L12.1062 33.0069C12.6751 33.639 13.4856 34 14.3361 34H19.5C20.3284 34 21 33.3284 21 32.5V30.5C21 29.6716 20.3284 29 19.5 29H17.6213C17.2235 29 16.842 29.158 16.5607 29.4393L15 31L13 33" stroke="#01C38E" stroke-width="2"/>
<path d="M14.7092 14.546L15.372 13.7972C16.4701 12.5565 18.3661 12.441 19.6068 13.5391L25.5973 18.8414C26.838 19.9395 26.9535 21.8355 25.8554 23.0762L25.1926 23.825" stroke="#01C38E" stroke-width="2"/>
<path d="M14.3046 19.5296V19.5296C15.4028 18.289 17.2987 18.1734 18.5394 19.2715L20.037 20.5971C21.2777 21.6952 21.3933 23.5912 20.2951 24.8319V24.8319" stroke="#01C38E" stroke-width="2"/>
</svg>
